<?xml version="1.0" encoding="UTF-8" standalone="no"?>
<!-- Generator: Adobe Illustrator 16.0.0, SVG Export Plug-In . SVG Version: 6.00 Build 0)  -->

<svg
   xmlns:dc="http://purl.org/dc/elements/1.1/"
   xmlns:cc="http://creativecommons.org/ns#"
   xmlns:rdf="http://www.w3.org/1999/02/22-rdf-syntax-ns#"
   xmlns:svg="http://www.w3.org/2000/svg"
   xmlns="http://www.w3.org/2000/svg"
   xmlns:sodipodi="http://sodipodi.sourceforge.net/DTD/sodipodi-0.dtd"
   xmlns:inkscape="http://www.inkscape.org/namespaces/inkscape"
   version="1.1"
   id="Layer_1"
   x="0px"
   y="0px"
   width="2880.068px"
   height="612px"
   viewBox="0 0 2880.068 612"
   enable-background="new 0 0 2880.068 612"
   xml:space="preserve"
   inkscape:version="0.91 r"
   sodipodi:docname="logo.svg"><metadata
     id="metadata85"><rdf:RDF><cc:Work
         rdf:about=""><dc:format>image/svg+xml</dc:format><dc:type
           rdf:resource="http://purl.org/dc/dcmitype/StillImage" /></cc:Work></rdf:RDF></metadata><defs
     id="defs83" /><sodipodi:namedview
     pagecolor="#ffffff"
     bordercolor="#666666"
     borderopacity="1"
     objecttolerance="10"
     gridtolerance="10"
     guidetolerance="10"
     inkscape:pageopacity="0"
     inkscape:pageshadow="2"
     inkscape:window-width="1920"
     inkscape:window-height="1056"
     id="namedview81"
     showgrid="false"
     inkscape:zoom="0.50000001"
     inkscape:cx="1553.728"
     inkscape:cy="314.86013"
     inkscape:window-x="0"
     inkscape:window-y="24"
     inkscape:window-maximized="1"
     inkscape:current-layer="Layer_1" /><g
     display="none"
     id="g3"><circle
       display="inline"
       fill="#2B3990"
       cx="546.326"
       cy="316.712"
       r="30"
       id="circle5" /><circle
       display="inline"
       fill="#2B3990"
       cx="323.648"
       cy="180.711"
       r="30"
       id="circle7" /><circle
       display="inline"
       fill="#2B3990"
       cx="313.395"
       cy="450.712"
       r="30"
       id="circle9" /><circle
       display="inline"
       fill="#2B3990"
       cx="478.004"
       cy="180.711"
       r="15"
       id="circle11" /><circle
       display="inline"
       fill="#2B3990"
       cx="469.338"
       cy="450.712"
       r="15"
       id="circle13" /><circle
       display="inline"
       fill="#2B3990"
       cx="235.338"
       cy="316.712"
       r="15"
       id="circle15" /></g><g
     id="g17"
     style="fill:#ffffff"
     transform="translate(-201.99999,0)"><circle
       cx="546.32599"
       cy="316.71301"
       r="45"
       id="circle19"
       style="fill:#ffffff" /><circle
       cx="323.647"
       cy="179.71001"
       r="45"
       id="circle21"
       style="fill:#ffffff" /><circle
       cx="313.396"
       cy="449.711"
       r="45"
       id="circle23"
       style="fill:#ffffff" /><circle
       cx="484.004"
       cy="185.71001"
       r="22.5"
       id="circle25"
       style="fill:#ffffff" /><circle
       cx="478.33801"
       cy="444.711"
       r="22.5"
       id="circle27"
       style="fill:#ffffff" /><circle
       cx="232.338"
       cy="306.711"
       r="22.5"
       id="circle29"
       style="fill:#ffffff" /></g><g
     display="none"
     id="g31"><path
       display="inline"
       fill="#8DC63F"
       d="M876.083,257.953c0,21.68-7.397,38.356-22.192,50.024   c-14.795,11.671-35.962,17.505-63.501,17.505h-25.195v84.229h-24.902v-214.16h55.518   C849.324,195.551,876.083,216.352,876.083,257.953z M765.194,304.096h22.412c22.068,0,38.035-3.563,47.9-10.693   c9.862-7.127,14.795-18.553,14.795-34.277c0-14.159-4.64-24.706-13.916-31.641c-9.279-6.933-23.73-10.4-43.359-10.4h-27.832   V304.096z"
       id="path33" /><path
       display="inline"
       fill="#8DC63F"
       d="M1055.526,409.711l-26.66-68.115h-85.84l-26.367,68.115h-25.195l84.668-215.039h20.947   l84.229,215.039H1055.526z M1021.103,319.184L996.2,252.826c-3.223-8.397-6.544-18.7-9.961-30.908   c-2.149,9.375-5.226,19.679-9.229,30.908l-25.195,66.357H1021.103z"
       id="path35" /><path
       display="inline"
       fill="#8DC63F"
       d="M1135.653,320.648v89.063h-24.902v-214.16h58.74c26.269,0,45.678,5.031,58.228,15.088   c12.547,10.06,18.823,25.195,18.823,45.41c0,28.322-14.355,47.461-43.066,57.422l58.154,96.24h-29.443l-51.855-89.063H1135.653z    M1135.653,299.262h34.131c17.578,0,30.469-3.49,38.672-10.474c8.203-6.981,12.305-17.455,12.305-31.421   c0-14.159-4.175-24.364-12.524-30.615c-8.35-6.249-21.753-9.375-40.21-9.375h-32.373V299.262z"
       id="path37" /><path
       display="inline"
       fill="#8DC63F"
       d="M1362.118,409.711h-24.902V217.67h-67.822v-22.119h160.547v22.119h-67.822V409.711z"
       id="path39" /><path
       display="inline"
       fill="#8DC63F"
       d="M1462.167,409.711v-214.16h24.902v214.16H1462.167z"
       id="path41" /><path
       display="inline"
       fill="#8DC63F"
       d="M1637.509,214.74c-23.536,0-42.114,7.837-55.737,23.511s-20.435,37.134-20.435,64.38   c0,28.029,6.566,49.684,19.702,64.966c13.133,15.285,31.86,22.925,56.177,22.925c14.941,0,31.981-2.685,51.123-8.057v21.826   c-14.846,5.566-33.156,8.35-54.932,8.35c-31.545,0-55.884-9.569-73.022-28.711c-17.139-19.139-25.708-46.337-25.708-81.592   c0-22.069,4.124-41.405,12.378-58.008c8.251-16.601,20.164-29.393,35.742-38.379c15.575-8.983,33.911-13.477,55.005-13.477   c22.46,0,42.089,4.102,58.887,12.305l-10.547,21.387C1669.93,218.549,1653.718,214.74,1637.509,214.74z"
       id="path43" /><path
       display="inline"
       fill="#8DC63F"
       d="M1735.067,409.711v-214.16h24.902v191.602h94.482v22.559H1735.067z"
       id="path45" /><path
       display="inline"
       fill="#8DC63F"
       d="M2010.165,409.711H1890.78v-214.16h119.385v22.119h-94.482v68.994h88.77v21.973h-88.77   v78.809h94.482V409.711z"
       id="path47" /></g><g
     id="g49"
     style="fill:#ffffff"
     transform="translate(-201.99999,0)"><path
       d="m 844.782,270.271 c 0,21.706 -7.406,38.402 -22.219,50.084 -14.813,11.685 -36.005,17.526 -63.577,17.526 l -25.226,0 0,84.329 -24.933,0 0,-214.416 55.584,0 c 53.58,0 80.371,20.826 80.371,62.477 z m -111.021,46.198 22.438,0 c 22.096,0 38.081,-3.567 47.958,-10.706 9.875,-7.136 14.813,-18.575 14.813,-34.318 0,-14.176 -4.645,-24.735 -13.933,-31.679 -9.29,-6.941 -23.759,-10.413 -43.411,-10.413 l -27.865,0 0,87.116 z"
       id="path51"
       style="fill:#8dc63f;fill-opacity:1"
       inkscape:connector-curvature="0" /><path
       d="m 984.843,422.211 -4.84,-22.879 -1.173,0 c -8.019,10.071 -16.012,16.891 -23.979,20.459 -7.97,3.568 -17.918,5.354 -29.845,5.354 -15.938,0 -28.43,-4.106 -37.472,-12.32 -9.045,-8.213 -13.566,-19.895 -13.566,-35.052 0,-32.46 25.959,-49.472 77.876,-51.037 l 27.279,-0.88 0,-9.973 c 0,-12.613 -2.713,-21.926 -8.14,-27.939 -5.427,-6.013 -14.104,-9.02 -26.032,-9.02 -13.396,0 -28.551,4.106 -45.465,12.32 l -7.479,-18.626 c 7.92,-4.301 16.596,-7.674 26.032,-10.12 9.435,-2.443 18.894,-3.667 28.379,-3.667 19.162,0 33.365,4.253 42.604,12.759 9.239,8.506 13.859,22.146 13.859,40.918 l 0,109.702 -18.038,0 z m -54.997,-17.159 c 15.153,0 27.059,-4.154 35.711,-12.466 8.653,-8.31 12.979,-19.946 12.979,-34.905 l 0,-14.52 -24.346,1.026 c -19.358,0.686 -33.316,3.692 -41.871,9.02 -8.557,5.33 -12.833,13.617 -12.833,24.859 0,8.8 2.663,15.498 7.993,20.092 5.329,4.598 12.783,6.894 22.367,6.894 z"
       id="path53"
       style="fill:#8dc63f;fill-opacity:1"
       inkscape:connector-curvature="0" /><path
       d="m 1126.37,258.538 c 7.136,0 13.541,0.587 19.212,1.76 l -3.373,22.585 c -6.65,-1.467 -12.517,-2.2 -17.599,-2.2 -13.005,0 -24.126,5.28 -33.365,15.839 -9.24,10.559 -13.859,23.711 -13.859,39.451 l 0,86.236 -24.346,0 0,-160.74 20.092,0 2.787,29.772 1.173,0 c 5.963,-10.461 13.149,-18.527 21.56,-24.199 8.407,-5.667 17.647,-8.504 27.718,-8.504 z"
       id="path55"
       style="fill:#8dc63f;fill-opacity:1"
       inkscape:connector-curvature="0" /><path
       d="m 1227.564,405.052 c 4.302,0 8.456,-0.316 12.467,-0.953 4.008,-0.635 7.187,-1.295 9.532,-1.98 l 0,18.626 c -2.64,1.272 -6.526,2.321 -11.659,3.153 -5.133,0.83 -9.753,1.247 -13.859,1.247 -31.092,0 -46.638,-16.376 -46.638,-49.132 l 0,-95.622 -23.025,0 0,-11.733 23.025,-10.12 10.266,-34.318 14.08,0 0,37.251 46.638,0 0,18.919 -46.638,0 0,94.596 c 0,9.68 2.296,17.111 6.893,22.292 4.594,5.184 10.901,7.774 18.918,7.774 z"
       id="path57"
       style="fill:#8dc63f;fill-opacity:1"
       inkscape:connector-curvature="0" /><path
       d="m 1279.63,217.914 c 0,-5.573 1.368,-9.655 4.106,-12.247 2.736,-2.589 6.16,-3.886 10.267,-3.886 3.909,0 7.282,1.32 10.119,3.96 2.835,2.64 4.253,6.698 4.253,12.173 0,5.477 -1.418,9.558 -4.253,12.246 -2.837,2.69 -6.21,4.033 -10.119,4.033 -4.106,0 -7.53,-1.343 -10.267,-4.033 -2.738,-2.688 -4.106,-6.77 -4.106,-12.246 z m 26.399,204.297 -24.346,0 0,-160.74 24.346,0 0,160.74 z"
       id="path59"
       style="fill:#8dc63f;fill-opacity:1"
       inkscape:connector-curvature="0" /><path
       d="m 1421.891,425.145 c -23.271,0 -41.285,-7.161 -54.045,-21.486 -12.759,-14.322 -19.139,-34.586 -19.139,-60.79 0,-26.888 6.476,-47.665 19.433,-62.331 12.954,-14.666 31.408,-21.999 55.363,-21.999 7.723,0 15.448,0.832 23.173,2.493 7.723,1.664 13.786,3.619 18.186,5.867 l -7.479,20.679 c -5.378,-2.15 -11.245,-3.935 -17.6,-5.354 -6.356,-1.416 -11.978,-2.126 -16.865,-2.126 -32.657,0 -48.984,20.826 -48.984,62.477 0,19.751 3.982,34.905 11.952,45.465 7.968,10.56 19.774,15.84 35.419,15.84 13.394,0 27.132,-2.883 41.211,-8.653 l 0,21.559 c -10.757,5.571 -24.298,8.359 -40.625,8.359 z"
       id="path61"
       style="fill:#8dc63f;fill-opacity:1"
       inkscape:connector-curvature="0" /><path
       d="m 1524.992,422.211 -24.346,0 0,-228.203 24.346,0 0,228.203 z"
       id="path63"
       style="fill:#8dc63f;fill-opacity:1"
       inkscape:connector-curvature="0" /><path
       d="m 1644.521,425.145 c -23.759,0 -42.509,-7.234 -56.244,-21.706 -13.738,-14.469 -20.605,-34.562 -20.605,-60.277 0,-25.908 6.38,-46.491 19.139,-61.744 12.76,-15.252 29.894,-22.879 51.404,-22.879 20.141,0 36.079,6.625 47.812,19.873 11.732,13.25 17.6,30.725 17.6,52.431 l 0,15.399 -110.729,0 c 0.487,18.871 5.254,33.195 14.299,42.972 9.043,9.777 21.779,14.666 38.205,14.666 17.306,0 34.415,-3.616 51.331,-10.854 l 0,21.706 c -8.604,3.717 -16.744,6.38 -24.419,7.993 -7.678,1.613 -16.941,2.42 -27.793,2.42 z m -6.6,-146.221 c -12.906,0 -23.197,4.205 -30.872,12.613 -7.677,8.41 -12.198,20.044 -13.566,34.905 l 84.037,0 c 0,-15.349 -3.424,-27.106 -10.267,-35.271 -6.845,-8.164 -16.623,-12.247 -29.332,-12.247 z"
       id="path65"
       style="fill:#8dc63f;fill-opacity:1"
       inkscape:connector-curvature="0" /></g><path
     d="m 1106.943,218.433 c 0,10.448 -7.211,16.095 -15.104,16.095 -10.247,0 -15.131,-7.18 -15.131,-17.377 0,-11.867 7.21,-16.856 15.135,-16.856 5.749,-10e-4 15.1,1.862 15.1,18.138 z"
     id="path67"
     style="fill:#ffffff"
     inkscape:connector-curvature="0" /><g
     id="g69"
     style="fill:#ffffff"
     transform="translate(-201.99999,0)" /><g
     id="g71"
     style="fill:#ffffff"
     transform="translate(-201.99999,0)" /><g
     id="g73"
     style="fill:#ffffff"
     transform="translate(-201.99999,0)" /><g
     id="g75"
     style="fill:#ffffff"
     transform="translate(-201.99999,0)" /><g
     id="g77"
     style="fill:#ffffff"
     transform="translate(-201.99999,0)" /><g
     id="g79"
     style="fill:#ffffff"
     transform="translate(-201.99999,0)" /></svg>